<?xml version="1.0" encoding="utf-8"?>
<!-- Generator: Adobe Illustrator 20.1.0, SVG Export Plug-In . SVG Version: 6.00 Build 0)  -->
<svg version="1.1" xmlns="http://www.w3.org/2000/svg" xmlns:xlink="http://www.w3.org/1999/xlink" x="0px" y="0px"
	 viewBox="0 0 500 500" style="enable-background:new 0 0 500 500;" xml:space="preserve">
<style type="text/css">
	.st0{fill:url(#SVGID_1_);}
	.st1{fill:url(#SVGID_2_);}
	.st2{fill:url(#SVGID_3_);}
	.st3{filter:url(#Adobe_OpacityMaskFilter);}
	.st4{fill:url(#SVGID_5_);}
	.st5{opacity:0.48;mask:url(#SVGID_4_);fill:url(#SVGID_6_);}
	.st6{display:none;}
	.st7{display:inline;}
	.st8{fill:#006938;}
	.st9{fill:none;stroke:#FFFFFF;stroke-width:5;stroke-miterlimit:10;}
	.st10{fill:#FFFFFF;stroke:#FFFFFF;stroke-miterlimit:10;}
	.st11{fill:#006838;stroke:#006938;stroke-width:4;stroke-miterlimit:10;}
	.st12{fill:none;stroke:#FFFFFF;stroke-width:2;stroke-miterlimit:10;}
	.st13{fill:none;stroke:#FFFFFF;stroke-miterlimit:10;}
	.st14{fill:#39B54A;}
	.st15{fill:none;stroke:#006938;stroke-width:3;stroke-miterlimit:10;}
	.st16{fill:#FFF200;}
	.st17{fill:#006938;stroke:#FFFFFF;stroke-width:5;stroke-miterlimit:10;}
	.st18{display:none;fill:#006938;stroke:#FFFFFF;stroke-width:5;stroke-miterlimit:10;}
	.st19{fill:#FFFFFF;stroke:#FFFFFF;stroke-width:5;stroke-miterlimit:10;}
	.st20{fill:#27AAE1;}
	.st21{fill:#D5AF34;}
	.st22{fill:none;stroke:#FFFFFF;stroke-width:3;stroke-miterlimit:10;}
	.st23{fill:#4066B0;}
	.st24{fill:#FFFFFF;}
	.st25{display:inline;fill:none;stroke:#FFFFFF;stroke-width:3;stroke-miterlimit:10;}
	.st26{display:inline;fill:#459ED7;stroke:#FFFFFF;stroke-width:2;stroke-miterlimit:10;}
	.st27{display:inline;fill:#FFFFFF;stroke:#FFFFFF;stroke-width:3;stroke-miterlimit:10;}
	.st28{fill:#006838;stroke:#FFFFFF;stroke-width:11;stroke-miterlimit:10;}
	.st29{font-family:'Broadway';}
	.st30{font-size:68px;}
	.st31{display:inline;fill:none;stroke:#FFFFFF;stroke-width:5;stroke-miterlimit:10;}
</style>
<g id="Button">
	<linearGradient id="SVGID_1_" gradientUnits="userSpaceOnUse" x1="7.7488" y1="250.0588" x2="492.8865" y2="250.0588">
		<stop  offset="0" style="stop-color:#266231"/>
		<stop  offset="1" style="stop-color:#233F1C"/>
	</linearGradient>
	<path class="st0" d="M480.9,498H19.7c-6.6,0-12-5.4-12-12V14.1c0-6.6,5.4-12,12-12h461.1c6.6,0,12,5.4,12,12V486
		C492.9,492.6,487.5,498,480.9,498z"/>
	<linearGradient id="SVGID_2_" gradientUnits="userSpaceOnUse" x1="250.2302" y1="487.8554" x2="250.2302" y2="12.0834">
		<stop  offset="0" style="stop-color:#5AA450"/>
		<stop  offset="0.1442" style="stop-color:#549D4D"/>
		<stop  offset="0.3141" style="stop-color:#438F46"/>
		<stop  offset="0.4963" style="stop-color:#26793D"/>
		<stop  offset="0.523" style="stop-color:#20763B"/>
		<stop  offset="0.5488" style="stop-color:#277A3D"/>
		<stop  offset="0.7041" style="stop-color:#438F46"/>
		<stop  offset="0.8496" style="stop-color:#549D4D"/>
		<stop  offset="0.9745" style="stop-color:#5AA450"/>
	</linearGradient>
	<path class="st1" d="M17.5,476V24c0-6.6,5.3-11.9,11.9-11.9h441.7c6.6,0,11.9,5.3,11.9,11.9v452c0,6.6-5.3,11.9-11.9,11.9H29.4
		C22.8,487.9,17.5,482.5,17.5,476z"/>
	<linearGradient id="SVGID_3_" gradientUnits="userSpaceOnUse" x1="406.6189" y1="520.7206" x2="94.1855" y2="-20.43">
		<stop  offset="3.826531e-02" style="stop-color:#1B2B17"/>
		<stop  offset="7.912852e-02" style="stop-color:#20341C"/>
		<stop  offset="0.2442" style="stop-color:#2F552D"/>
		<stop  offset="0.4069" style="stop-color:#397539"/>
		<stop  offset="0.5642" style="stop-color:#408E40"/>
		<stop  offset="0.7143" style="stop-color:#42A245"/>
		<stop  offset="0.8544" style="stop-color:#42AF48"/>
		<stop  offset="0.9745" style="stop-color:#42B649"/>
	</linearGradient>
	<path class="st2" d="M21.7,472V28.3c0-6.5,5.3-11.9,11.9-11.9h433.7c6.5,0,11.9,5.3,11.9,11.9V472c0,6.5-5.3,11.9-11.9,11.9H33.6
		C27,483.9,21.7,478.6,21.7,472z"/>
	<defs>
		<filter id="Adobe_OpacityMaskFilter" filterUnits="userSpaceOnUse" x="-47.8" y="-290" width="573.8" height="586.5">
			<feColorMatrix  type="matrix" values="1 0 0 0 0  0 1 0 0 0  0 0 1 0 0  0 0 0 1 0"/>
		</filter>
	</defs>
	<mask maskUnits="userSpaceOnUse" x="-47.8" y="-290" width="573.8" height="586.5" id="SVGID_4_">
		<g class="st3">
			<linearGradient id="SVGID_5_" gradientUnits="userSpaceOnUse" x1="250.2302" y1="487.8554" x2="250.2302" y2="12.0834">
				<stop  offset="0" style="stop-color:#27AAE1"/>
				<stop  offset="9.986266e-02" style="stop-color:#26A7DF"/>
				<stop  offset="0.2176" style="stop-color:#239ED9"/>
				<stop  offset="0.3442" style="stop-color:#2190CF"/>
				<stop  offset="0.4764" style="stop-color:#1D7DC1"/>
				<stop  offset="0.523" style="stop-color:#1B75BC"/>
				<stop  offset="0.5657" style="stop-color:#1E7DC1"/>
				<stop  offset="0.6783" style="stop-color:#2190CF"/>
				<stop  offset="0.7866" style="stop-color:#239ED9"/>
				<stop  offset="0.8878" style="stop-color:#26A7DF"/>
				<stop  offset="0.9745" style="stop-color:#27AAE1"/>
			</linearGradient>
			<path class="st4" d="M17.5,476V24c0-6.6,5.3-11.9,11.9-11.9h441.7c6.6,0,11.9,5.3,11.9,11.9v452c0,6.6-5.3,11.9-11.9,11.9H29.4
				C22.8,487.9,17.5,482.5,17.5,476z"/>
		</g>
	</mask>
	
		<radialGradient id="SVGID_6_" cx="210.4446" cy="63.1405" r="257.8994" gradientTransform="matrix(1.1124 0 0 1.1371 5.0329 -68.5426)" gradientUnits="userSpaceOnUse">
		<stop  offset="0" style="stop-color:#FFFFFF;stop-opacity:0"/>
		<stop  offset="1" style="stop-color:#FFFFFF"/>
	</radialGradient>
	<ellipse class="st5" cx="239.1" cy="3.3" rx="286.9" ry="293.3"/>
</g>
<g id="House" class="st6">
	<g id="XMLID_10_" class="st7">
		<g>
			<path class="st8" d="M397,141.5v320.3h-36.6V349.1h-77.7v112.8H168.4V141.5H397z M288.1,277.9v-45.4v-45.4h-45.4h-45.4v45.4v45.4
				h45.4H288.1z"/>
			<polygon class="st8" points="397,141.5 168.4,141.5 282.7,58 			"/>
			<path class="st8" d="M360.4,349.1v112.8h-77.7V349.1H360.4z M354.7,413.6c0-3.7-3-6.7-6.7-6.7s-6.7,3-6.7,6.7
				c0,3.7,3,6.7,6.7,6.7S354.7,417.3,354.7,413.6z"/>
			<circle class="st8" cx="348" cy="413.6" r="6.7"/>
			<rect x="242.8" y="232.5" class="st8" width="45.4" height="45.4"/>
			<rect x="242.8" y="187.1" class="st8" width="45.4" height="45.4"/>
			<rect x="197.4" y="232.5" class="st8" width="45.4" height="45.4"/>
			<rect x="197.4" y="187.1" class="st8" width="45.4" height="45.4"/>
		</g>
		<g>
			<polyline class="st9" points="282.7,461.8 168.4,461.8 168.4,141.5 397,141.5 397,461.8 360.4,461.8 			"/>
			<line class="st9" x1="168.4" y1="141.5" x2="282.7" y2="58"/>
			<line class="st9" x1="397" y1="141.5" x2="282.7" y2="58"/>
			<polygon class="st9" points="288.1,232.5 288.1,277.9 242.8,277.9 197.4,277.9 197.4,232.5 197.4,187.1 242.8,187.1 288.1,187.1 
							"/>
			<polyline class="st9" points="242.8,187.1 242.8,232.5 242.8,277.9 			"/>
			<polyline class="st9" points="197.4,232.5 242.8,232.5 288.1,232.5 			"/>
			<rect x="282.7" y="349.1" class="st9" width="77.7" height="112.8"/>
			<circle class="st9" cx="348" cy="413.6" r="6.7"/>
		</g>
	</g>
</g>
<g id="Option1" class="st6">
	<g id="Flowey" class="st7">
		
			<ellipse transform="matrix(1 -2.439864e-03 2.439864e-03 1 -0.2563 0.974)" class="st10" cx="399.1" cy="105.5" rx="19.7" ry="19.7"/>
		<line class="st11" x1="399.1" y1="125.2" x2="399.3" y2="184.5"/>
		<line class="st12" x1="393.6" y1="94.6" x2="394.3" y2="105.1"/>
		<path class="st13" d="M405.3,113.6"/>
		<line class="st12" x1="402.4" y1="94.6" x2="403.1" y2="105"/>
		<line class="st13" x1="390" y1="110.9" x2="409.5" y2="110.8"/>
		<line class="st13" x1="412.9" y1="107" x2="409.5" y2="110.8"/>
		<line class="st13" x1="387.1" y1="107.9" x2="390" y2="110.9"/>
		<line class="st13" x1="392" y1="115.1" x2="390" y2="110.9"/>
		<line class="st13" x1="408.4" y1="115" x2="409.5" y2="110.8"/>
		<line class="st13" x1="392" y1="115.1" x2="408.4" y2="115"/>
		<line class="st13" x1="390.6" y1="110.9" x2="408.4" y2="110.8"/>
	</g>
	<g id="Leaf" class="st7">
		<g id="XMLID_2_">
			<g>
				<polygon class="st14" points="399.2,164.8 413.4,146.9 427.2,144.5 420.4,158.3 				"/>
			</g>
			<g>
				<line class="st15" x1="399.2" y1="164.8" x2="418.9" y2="151.4"/>
				<line class="st15" x1="420.4" y1="158.3" x2="399.2" y2="164.8"/>
				<line class="st15" x1="427.2" y1="144.5" x2="420.4" y2="158.3"/>
				<line class="st15" x1="413.4" y1="146.9" x2="427.2" y2="144.5"/>
				<line class="st15" x1="399.2" y1="164.8" x2="413.4" y2="146.9"/>
			</g>
		</g>
	</g>
	<g id="Ring-Painting" class="st7">
		<g id="XMLID_1_">
			<g>
				<polygon class="st8" points="181,20.1 181.5,209.7 167.3,194.3 166.9,39.6 				"/>
				<polygon class="st8" points="181,20.1 166.9,39.6 42.9,40 27.8,20.4 				"/>
				<polygon class="st8" points="167.3,194.3 181.5,209.7 28.3,210.1 43.3,194.6 				"/>
				<polygon class="st8" points="42.9,40 43.3,194.6 28.3,210.1 27.8,20.4 				"/>
			</g>
			<g>
				
					<rect x="28.1" y="20.2" transform="matrix(1 -2.439864e-03 2.439864e-03 1 -0.2805 0.2557)" class="st9" width="153.2" height="189.7"/>
				
					<rect x="43.1" y="39.8" transform="matrix(1 -2.439864e-03 2.439864e-03 1 -0.2855 0.2568)" class="st9" width="124" height="154.7"/>
				<line class="st9" x1="166.9" y1="39.6" x2="181" y2="20.1"/>
				<line class="st9" x1="42.9" y1="40" x2="27.8" y2="20.4"/>
				<line class="st9" x1="43.3" y1="194.6" x2="28.3" y2="210.1"/>
				<line class="st9" x1="167.3" y1="194.3" x2="181.5" y2="209.7"/>
			</g>
		</g>
	</g>
	<g id="Painting" class="st7">
		<g id="XMLID_5_">
			<g>
				<polygon class="st8" points="475,20 475.4,205.7 461.6,190.6 461.2,39.2 				"/>
				<polygon class="st8" points="475,20 461.2,39.2 339.8,39.5 325,20.4 				"/>
				<polygon class="st8" points="461.6,190.6 475.4,205.7 325.5,206.1 340.2,190.9 				"/>
				<polygon class="st8" points="339.8,39.5 340.2,190.9 325.5,206.1 325,20.4 				"/>
			</g>
			<g>
				
					<rect x="325.2" y="20.2" transform="matrix(1 -2.439864e-03 2.439864e-03 1 -0.2746 0.9768)" class="st9" width="149.9" height="185.7"/>
				
					<rect x="340" y="39.3" transform="matrix(1 -2.439864e-03 2.439864e-03 1 -0.2795 0.9779)" class="st9" width="121.4" height="151.4"/>
				<line class="st9" x1="461.2" y1="39.2" x2="475" y2="20"/>
				<line class="st9" x1="339.8" y1="39.5" x2="325" y2="20.4"/>
				<line class="st9" x1="340.2" y1="190.9" x2="325.5" y2="206.1"/>
				<line class="st9" x1="461.6" y1="190.6" x2="475.4" y2="205.7"/>
			</g>
		</g>
	</g>
	<g id="Petal7" class="st7">
		<g id="XMLID_6_">
			<g>
				<polygon class="st16" points="390,107.4 367.9,113.3 355.3,107.1 369.1,100.1 				"/>
			</g>
			<g>
				<line class="st13" x1="369.1" y1="100.1" x2="390" y2="107.4"/>
				<line class="st13" x1="390" y1="107.4" x2="367.9" y2="113.3"/>
				<line class="st13" x1="367.9" y1="113.3" x2="355.3" y2="107.1"/>
				<line class="st13" x1="355.3" y1="107.1" x2="369.1" y2="100.1"/>
			</g>
		</g>
	</g>
	<g id="Petal6" class="st7">
		<g id="XMLID_11_">
			<g>
				<polygon class="st16" points="443.8,106.2 430,113.2 409.2,105.6 431.3,99.9 				"/>
			</g>
			<g>
				<line class="st13" x1="430" y1="113.2" x2="409.2" y2="105.6"/>
				<line class="st13" x1="409.2" y1="105.6" x2="431.3" y2="99.9"/>
				<line class="st13" x1="431.3" y1="99.9" x2="443.8" y2="106.2"/>
				<line class="st13" x1="443.8" y1="106.2" x2="430" y2="113.2"/>
			</g>
		</g>
	</g>
	<g id="Petal2" class="st7">
		<g id="XMLID_19_">
			<g>
				<polygon class="st16" points="398.2,62.6 405.8,76 399.3,97.2 392.5,75.4 				"/>
			</g>
			<g>
				<line class="st13" x1="405.8" y1="76" x2="399.3" y2="97.2"/>
				<line class="st13" x1="399.3" y1="97.2" x2="392.5" y2="75.4"/>
				<line class="st13" x1="392.5" y1="75.4" x2="398.2" y2="62.6"/>
				<line class="st13" x1="398.2" y1="62.6" x2="405.8" y2="76"/>
			</g>
		</g>
	</g>
	<g id="Petal3" class="st7">
		<g id="XMLID_15_">
			<g>
				<polygon class="st16" points="421.7,121.6 428.3,134 413,131.8 400.3,113.6 				"/>
			</g>
			<g>
				<line class="st13" x1="413" y1="131.8" x2="400.3" y2="113.6"/>
				<line class="st13" x1="400.3" y1="113.6" x2="421.7" y2="121.6"/>
				<line class="st13" x1="421.7" y1="121.6" x2="428.3" y2="134"/>
				<line class="st13" x1="428.3" y1="134" x2="413" y2="131.8"/>
			</g>
		</g>
	</g>
	<g id="Petal4" class="st7">
		<g id="XMLID_14_">
			<g>
				<polygon class="st16" points="398.9,115.2 384.2,132.7 370.3,134.8 377.5,121.1 				"/>
			</g>
			<g>
				<line class="st13" x1="377.5" y1="121.1" x2="398.9" y2="115.2"/>
				<line class="st13" x1="398.9" y1="115.2" x2="384.2" y2="132.7"/>
				<line class="st13" x1="384.2" y1="132.7" x2="370.3" y2="134.8"/>
				<line class="st13" x1="370.3" y1="134.8" x2="377.5" y2="121.1"/>
			</g>
		</g>
	</g>
	<g id="Petal5" class="st7">
		<g id="XMLID_12_">
			<g>
				<polygon class="st16" points="380.9,81.8 394.7,99 372.9,92.5 365.4,80.6 				"/>
			</g>
			<g>
				<line class="st13" x1="380.9" y1="81.8" x2="394.7" y2="99"/>
				<line class="st13" x1="394.7" y1="99" x2="372.9" y2="92.5"/>
				<line class="st13" x1="372.9" y1="92.5" x2="365.4" y2="80.6"/>
				<line class="st13" x1="365.4" y1="80.6" x2="380.9" y2="81.8"/>
			</g>
		</g>
	</g>
	<g id="Petal1" class="st7">
		<g id="XMLID_21_">
			<g>
				<polygon class="st16" points="434.3,79.1 426.7,92.6 405.3,98.1 420.4,80.9 				"/>
			</g>
			<g>
				<line class="st13" x1="426.7" y1="92.6" x2="405.3" y2="98.1"/>
				<line class="st13" x1="405.3" y1="98.1" x2="420.4" y2="80.9"/>
				<line class="st13" x1="420.4" y1="80.9" x2="434.3" y2="79.1"/>
				<line class="st13" x1="434.3" y1="79.1" x2="426.7" y2="92.6"/>
			</g>
		</g>
	</g>
	<g id="Home" class="st7">
		<rect x="153.4" y="263.3" class="st17" width="206.9" height="211.2"/>
		<rect x="319.2" y="201.6" class="st18" width="41.1" height="90.3"/>
		<polygon class="st17" points="257.8,172.8 406.3,291.9 109.4,291.9 		"/>
		<rect x="227.2" y="382.9" class="st19" width="62.4" height="91.6"/>
	</g>
	<g id="Ring" class="st7">
		<g id="XMLID_22_">
			<g>
				<path class="st20" d="M54.1,80.5h37.6v27.7c-4.5,2.6-8.4,6-11.7,10h-26V80.5z"/>
				<path class="st21" d="M91.8,108.1c6.4-3.8,13.9-5.9,21.9-5.9c24,0,43.4,19.4,43.4,43.4c0,24-19.4,43.4-43.4,43.4
					s-43.4-19.4-43.4-43.4c0-10.4,3.7-20,9.8-27.5h11.7V108.1z M113.7,113.4c-17.8,0-32.2,14.4-32.2,32.2s14.4,32.2,32.2,32.2
					s32.2-14.4,32.2-32.2S131.5,113.4,113.7,113.4z"/>
				<path class="st20" d="M91.8,108.1v10H80.1C83.4,114.1,87.3,110.8,91.8,108.1z"/>
			</g>
			<g>
				<circle class="st22" cx="113.7" cy="145.6" r="32.2"/>
				<path class="st22" d="M91.8,108.1c6.4-3.8,13.9-5.9,21.9-5.9c24,0,43.4,19.4,43.4,43.4c0,24-19.4,43.4-43.4,43.4
					s-43.4-19.4-43.4-43.4c0-10.4,3.7-20,9.8-27.5C83.4,114.1,87.3,110.8,91.8,108.1z"/>
				<polyline class="st22" points="80.1,118.1 54.1,118.1 54.1,80.5 91.8,80.5 91.8,108.1 				"/>
				<line class="st22" x1="56.3" y1="116" x2="72.2" y2="107.5"/>
				<line class="st22" x1="81.4" y1="99.3" x2="89.7" y2="82.6"/>
				<line class="st22" x1="74.2" y1="100.5" x2="56.3" y2="82.6"/>
			</g>
		</g>
	</g>
</g>
<g id="JetSki">
	<g id="JetSKI-color" class="st6">
		<g id="XMLID_9_" class="st7">
			<g>
				<path class="st23" d="M456.5,416.6l7.6,26.8l-133.3-25.8l-70.2-31.8l9.9-8.8l78.4-15.1l23.4-18.5l2.5-1.4
					c-5.9,4.3-9.4,9.5-7.8,11.8c1.5,2.1,7,0.9,12.7-2.6l0,0.2l-17,13.5l0.5,3.1l5.3,21.5L456.5,416.6z"/>
				<path class="st23" d="M390.3,337.7c1.7,2.3-2.1,7.8-8.5,12.2c-0.6,0.4-1.2,0.8-1.9,1.2l2.9-13.4L375,342
					c0.2-0.2,0.5-0.3,0.7-0.5C382,337.1,388.6,335.4,390.3,337.7z"/>
				<path class="st23" d="M382.8,337.8l-2.9,13.4c-5.7,3.5-11.2,4.7-12.7,2.6c-1.6-2.2,1.8-7.4,7.8-11.8L382.8,337.8z"/>
			</g>
			<g>
			</g>
		</g>
	</g>
	<g id="Water" class="st6">
		<g class="st7">
			<g>
				<g>
					<g>
						<g>
							<path class="st24" d="M492.6,414.1c0.4-0.1-0.1-0.8-0.1-1C492,413.6,492.7,414.3,492.6,414.1z"/>
							<polygon class="st24" points="487.3,418.6 487.2,418.2 486.7,419.4 							"/>
							<path class="st24" d="M481.6,421.2c1.1,1.1,2-1.1,3.2-1.1l0.3,0.2l0-1.3C483.9,419.7,482.6,421.1,481.6,421.2z"/>
							<path class="st24" d="M477.2,419.7c0.4,0.4-0.5,0.7,0.8-0.2c-0.1,0-0.1,0-0.2-0.1C477.7,419.6,477.5,419.6,477.2,419.7z"/>
							<path class="st24" d="M477.8,419.5C478.4,419.2,477.3,419.2,477.8,419.5L477.8,419.5z"/>
							<path class="st24" d="M475.2,421l0.6-0.8c-0.3-0.2-1,0-0.9-0.3C474.2,420.5,474.5,420.8,475.2,421z"/>
							<path class="st24" d="M474.9,422.3l0.3-0.4C475.1,421.9,474.9,421.9,474.9,422.3z"/>
							<path class="st24" d="M475.9,421.2l-0.7,0.8c0.2,0.2,0.4,0.6,0.3-0.3C475.6,422,475.6,421.6,475.9,421.2z"/>
							<path class="st24" d="M476.5,421.1c0.6,0.1,1.2,0,0.6,0.8C478.5,421.1,477.9,420.3,476.5,421.1z"/>
							<path class="st24" d="M481.9,422.6l0.8,0.1l0.3-0.7C482.8,422.4,481.7,422.2,481.9,422.6z"/>
							<path class="st24" d="M470,422.6c0.1,0.3,0.6,0.6,0.8,0.9l0.4-0.6C470.8,422.9,470.2,423,470,422.6z"/>
							<path class="st24" d="M470.8,423.5l-0.7,0.9C470.9,424.1,471,423.8,470.8,423.5z"/>
							<polygon class="st24" points="475.4,423.8 476.4,422.2 475.1,424 							"/>
							<polygon class="st24" points="466.6,424.1 466.8,423.2 466.4,424.6 							"/>
							<path class="st24" d="M464.4,425.2c0.1-0.7-0.9-0.7-0.7-1.2c-0.6,0.4-0.9,1.1-1.1,1.7C463,425.3,463.6,425.1,464.4,425.2z"/>
							<path class="st24" d="M462.1,426.7c0.2-0.2,0.3-0.6,0.5-0.9C462.4,425.9,462.2,426.2,462.1,426.7z"/>
							<path class="st24" d="M468.6,425c-0.1-0.1-0.5-0.5-1-0.5l0.7,0.6C468.3,425.1,468.4,425,468.6,425z"/>
							<path class="st24" d="M468.2,425.1L468.2,425.1c-0.4,0.1-0.7,0.2-0.8,0.3C467.6,425.4,467.8,425.3,468.2,425.1z"/>
							<path class="st24" d="M468.7,424.9C468.6,424.9,468.6,424.9,468.7,424.9C468.6,425,468.7,425,468.7,424.9z"/>
							<path class="st24" d="M472.8,424.2c-0.3,0.7-1.2,1.6,0.2,1.8C473.1,425.3,472.3,425.2,472.8,424.2z"/>
							<path class="st24" d="M469.5,425.7l1-0.2c-0.1-0.2-0.4-0.4-0.3-0.8L469.5,425.7z"/>
							<polygon class="st24" points="469.2,426.2 469.5,425.7 469.2,425.8 							"/>
							<path class="st24" d="M464,426.7c-0.2,0.5-0.7,0.7-1.1,1c0.6-0.1,1.2-0.3,1.7-0.5C464.6,426.9,464.6,426.4,464,426.7z"/>
							<path class="st24" d="M466.1,426C466.1,426,466.1,426,466.1,426C466.1,426.1,466.2,426.1,466.1,426z"/>
							<polygon class="st24" points="458,429.9 458.2,430 458.1,429.9 							"/>
							<path class="st24" d="M464.8,427.3c0.5,0,0.6-0.3,0.7-0.7c-0.3,0.2-0.6,0.4-0.9,0.6C464.6,427.3,464.7,427.4,464.8,427.3z"/>
							<path class="st24" d="M460.9,427.6c0.3,0.1,0.6,0.1,0.9,0.1C461.5,427.6,460.9,427.4,460.9,427.6z"/>
							<path class="st24" d="M465.8,425.9C465.8,425.9,465.8,425.9,465.8,425.9C465.7,425.7,465.7,425.8,465.8,425.9z"/>
							<path class="st24" d="M465.8,425.9c-0.2,0.2-0.2,0.5-0.3,0.7c0.2-0.2,0.4-0.4,0.5-0.6C466,426,465.9,426,465.8,425.9z"/>
							<path class="st24" d="M458.8,435.6c-0.3-0.8,0.5-1.9,1.7-1.5c0.6-0.9-1-3.1-2.4-4c0.1,0.3,0.2,0.6-0.5,1.5c0.5,0.2,2.5,0,2,1
								c-1,0.9-1.1,0.2-1.9,0.1c0.9,0.7-1,2-0.1,3.2l0.9-0.9C458.7,435,458.4,435.5,458.8,435.6z"/>
							<path class="st24" d="M459.9,429.3l0.3-0.3c-0.5,0.1-0.9-0.1-1.8-0.4c-0.5,0.6-0.5,1-0.4,1.2l1.9-0.7L459.9,429.3z"/>
							<path class="st24" d="M462,428.2c0.1,0.9-0.7,1.7,0.2,2.3c1.1-0.6,0.5-1,1-1.6C461.5,429.9,463.5,428.2,462,428.2
								c0.3-0.2,0.6-0.4,0.9-0.6c-0.4,0.1-0.7,0.1-1.1,0.1c0,0,0,0,0.1,0l0,0l0,0c0.1,0.1,0.2,0.1,0.1,0.1c0,0,0,0,0,0
								C462,428,462,428.1,462,428.2c-0.6,0.1-0.2-0.2-0.1-0.3c0,0,0-0.1,0-0.1c0,0,0,0,0,0l-1.6,1.2
								C460.7,429,461.2,428.7,462,428.2z"/>
							<path class="st24" d="M472.7,428.1c-0.1,0-0.1-0.1-0.1-0.2C472.5,428.1,472.5,428.2,472.7,428.1z"/>
							<path class="st24" d="M471.8,428c0.1-0.2,0-0.5,0.5-0.6c0.5,0.1,0.2,0.4,0.3,0.6c0.2-0.3,0.6-1-0.3-1l-0.1,0.2
								c-0.8,0.1-2.2-0.5-2.1-0.7C470.6,427.1,471,427.5,471.8,428z"/>
							<path class="st24" d="M466.9,428.3l-1.3,1.1l1.1,0.3l-0.2-0.4C467.4,429.1,467,428.7,466.9,428.3z"/>
							<polygon class="st24" points="457.7,429.6 457.5,428.7 457.2,430.2 							"/>
							<polygon class="st24" points="455.8,430.6 455.5,429.8 455.2,430.5 							"/>
							<path class="st24" d="M347.8,428.6l-0.5,0C347.5,428.6,347.7,428.6,347.8,428.6z"/>
							<path class="st24" d="M350.9,430.3l0.3-0.3C350.9,430.1,350.8,430.2,350.9,430.3z"/>
							<path class="st24" d="M410.7,411.6c-1.1-0.3-2.8-0.8-2.4,0c0,0,0.1,0.2,0.3,0.3c0.1,0.2,0.3,0.3,0.3,0.3
								C409.5,411.8,410.2,411.6,410.7,411.6z"/>
							<path class="st24" d="M378.8,431.7c0.1,0.1,0.2,0.1,0.3,0.2c0-0.3,0.1-0.7,0.1-1C379,431.2,378.9,431.5,378.8,431.7z"/>
							<path class="st24" d="M379.8,435.2l-1.1-0.1C379,435.2,379.3,435.2,379.8,435.2z"/>
							<path class="st24" d="M330.7,420.8c0,0-0.5,0.8-0.4,0.8C330.4,421.6,330.6,421.2,330.7,420.8z"/>
							<path class="st24" d="M440.6,425.4c-0.4-0.6-0.7-0.9-1.1-1.2C439.9,425,440.1,426,440.6,425.4z"/>
							<path class="st24" d="M353.3,421.1c-0.3,0-0.5,0.1-0.6,0.3C353,421.3,353.3,421.3,353.3,421.1z"/>
							<path class="st24" d="M437.9,423.5c0.1,0.1,0.1,0.2,0.2,0.3c0.5,0.1,0.9,0.2,1.4,0.5C439.2,423.7,438.7,423.2,437.9,423.5z"
								/>
							<path class="st24" d="M268.5,428.2c0-0.1-0.1-0.1-0.1-0.2C268.3,428.2,268.4,428.2,268.5,428.2z"/>
							<path class="st24" d="M254.7,411.2c0.2,0,0.5,0.2,0.8,0.3C255.3,411.4,255.1,411.3,254.7,411.2z"/>
							<path class="st24" d="M452.4,430.8C452.6,430.8,452.5,430.7,452.4,430.8L452.4,430.8z"/>
							<path class="st24" d="M452.4,434.7c-0.1,0.1-0.2,0.2-0.2,0.4C452.3,434.8,452.4,434.7,452.4,434.7z"/>
							<path class="st24" d="M431.4,426.2C431.4,426.2,431.4,426.2,431.4,426.2C431.4,426.4,431.4,426.3,431.4,426.2z"/>
							<path class="st24" d="M452.5,431.3c0-0.1,0-0.2-0.1-0.3C452.4,431,452.4,431.1,452.5,431.3z"/>
							<path class="st24" d="M452.6,430.9c0,0.1,0.1,0.1,0.1,0.1C452.7,430.9,452.8,430.8,452.6,430.9z"/>
							<path class="st24" d="M452.1,430.7c0.1,0,0.3,0.1,0.3,0.2c0,0,0,0.1,0.1,0.1c0-0.1,0-0.1,0-0.1
								C452.4,430.8,452.4,430.8,452.1,430.7z"/>
							<path class="st24" d="M305.1,428.3c0,0-0.1,0-0.1,0C304.7,428.8,304.9,428.6,305.1,428.3z"/>
							<path class="st24" d="M402.3,425.3C402.3,425.3,402.3,425.3,402.3,425.3C402.3,425.2,402.2,425.2,402.3,425.3L402.3,425.3z"
								/>
							<path class="st24" d="M401,426.6c0.2-1.3,0.6-1.3,1.2-1.3l-1.5-2.1L401,426.6z"/>
							<path class="st24" d="M340.3,425l0.7,1.2c-1.8,0.5-2.5-0.3-2,1.1c1.4-2.3,4.1,1.8,5.4-0.5l0.4,0.9c-0.2-0.1-0.3,0-0.5-0.1
								c0.7,1.8,1.9-1.2,3.4,0c0.5,0.5,0.7,1,0.2,1.1l1.6,0.1c0.4,0.2,0,0.6-0.3,0.4l2.1,0.8l-0.1,0.1c0.5-0.2,1.4-0.5,1.9-0.6
								c0.3,0.6-0.4,0.1-0.4,0.5l1.4,0c0.1,0.9-1.1,1-1.8,0.5c-0.2,2.9,1.2-0.1,2.7,2.4l-1.2-0.2c0,1.7,1,1.6,1.7,3.1
								c0-0.6-1.2-3.4,0.3-3.3c0.2,0.4,0.6,0.7,1.5,0.5c-0.4,0.9,0.3,1,1.1,1.3l-0.6,1.1c1,0.1,1.2-0.5,2-0.8
								c0.9,0.6,0.6,1.6,0.5,2.4c1.4,1-0.3-2,1.6-1.2c0.5,0.5,1.1,0.8,1.7,1c0.3,0.1,0.7,0.1,1.1,0.1c0.2,0,0.4,0,0.6,0
								c0.1,0,0.2,0,0.3,0c0.1,0,0.2,0,0.4,0c1.2,1.1-0.6,0.6-0.2,1.2c0,0,1.6-0.3,1.6-0.3c0.3,0.2,0.1,0.4,0,0.6
								c1.1,0.1,0.5-1.2,2-0.8c0.3-0.6,0.7,0,1.5,0.9c0.9,0.2,2.5,0.2,3.4-1.2c0.6,0.1,0,0.9,0.3,1.3c0.6-0.6,1.1-1,1.4-1.3
								c0.3-0.3,0.4-0.4,0.5-0.6c0.2-0.4,0.4-0.8,0.9-1.7l1.6,0.2c-1.3-0.5-0.6-2,0-3.3c-0.5-0.3-1-0.5-1.2-0.6l1.4-1.4
								c0.3,0.1,0.3,0.6,0.3,1.2c0.1-0.1,0.1-0.3,0.2-0.4c0.8,0.2,0.8,1,0.7,1.8c-0.3-0.1-0.6-0.3-0.9-0.4c-0.1,0.9-0.1,1.8,0.3,2.5
								c0-0.2,0.2-0.4,0.4-0.6c0,0.2,0,0.4,0.1,0.5c0.1,0.1,0.2-0.2,0.3-0.7l1,1.1l-0.1-0.6l2.5-0.2c1-2,1.4-4.5,3.6-6.2
								c-0.2,1.2,0.6,1.6,1.1,2.8c-1.2-0.9-1.7,1.4-3.1,1.7c0.7-0.2,0.8,0.4,0.7,0.7l1.8-2.1c0.4,0.9,0.8,0.5,1.6,0.6
								c-1.3-1.6,1.1-2,1.8-3c0.3,0.6,0.4,1.3-0.8,1.7c1.9,0.8,0.6-2.9,2.4-2.3c-0.3,0.1-0.5,0.1-0.4,0.5c0.4-0.8,2.2-1.1,2-0.4
								l-0.3,0.1c1.9-0.6,5.6-2.5,5.1-4.2c0.1,0.2,0.6,2,0.6,2.3l0.9-6.7c0.3,1.5,2.9,4.1,1.7,5.6c0.5,0,1.2,0,1.9-0.9
								c-0.4-0.1-1.6-1.6-1.3-1.9c1.8,1,1.1,0.4,3.1,1.1c-0.6-0.1-1-2.4-0.3-2.6c0,0.4,1,2,0.8,2.4l0.8-2.8
								c-0.3,0.6,0.7,1.8,1.4,2.2c-0.4-0.3,1.5-0.6,1.9-1.1l-1-0.1c1.2-0.3,0.9-1.1,1.1-2.1c0.1-1,0.4-2,1.4-2.4
								c-0.3,0.6-0.2,3.2,0.3,3.3l0,0c0.1-0.6,0.5-1.9,1.4-3c0.5-0.5,1-1,1.7-1.3c0.3-0.1,0.7-0.2,1-0.3c0.2,0,0.4,0,0.5,0
								c0.1,0,0.3,0,0.4,0l0,0.8l1.6,0c-0.8,0.6-2.2,1.4-3.6,2.1c-1.4,0.8-2.2,1.7-2.7,2.3c0.3,0.7-0.1,0.8,0.4,1
								c-0.1,0.7-0.5,0.8-0.6,0.8c0.1,0,0.4,0.6,0.9,0.9c0.5-1.3,2.5-0.2,3-1.2c0,0-0.8,0-1.7-0.1c-0.4,0-0.8,0-1.2-0.1
								c-0.2,0-0.3,0.1-0.3,0.1c0.2-1.4,3.1-2.7,4.8-1.6c0.2,0.7-1.4,1.9-1.6,2.4c0.4-0.3,2.1,0.1,2.1,0.5l-1.1,0.2
								c0.8,1,2.4-0.7,3,1c0.4,0.3,0.4,2.2,0.9,1.5c0-1.7,2.1-6,3.1-6.8c0.1,0.2,1.5,2.4,1.6,3.3c0.1,1.4-2.3,2-2.2,3.2
								c0.2-0.3,0.8-0.5,1-0.6c0.3,0.5-0.7,0.9,0.3,1.3c0.8-1.1,1.9,1.1,1-0.8c1.1,0.1,0.8,0.8,2,1.3c0.1-1,2.3-2.2,3.4-2
								c-0.2,0.3-0.2,0.8-0.2,1c1.8,1.1,2.5,2.2,4.3,3.1c0,0.4,0.7,1.2,0,1.5c0.4-0.1,0.8-0.4,1.4-0.1c0.5,1.6-1.3-0.5-1.1,1.2
								c0.4-0.7,1.9-0.2,2.9-0.3c0.3-1.2-1.7-1.1-2.7-1.1c0.8-1.5,2.9-2.4,5.1-2.1c1.6,0.4,0.1,1.3,0.5,1.2c2.6,1.7,3.7-1.4,5.4,0.8
								c0.4,1.4-0.9,1.9-1.1,2.7c-1.4-0.3-1.5-1.5-2.3-1.9l0.8,1c-0.5,0.1-1.5,0-1.7-0.5c0.3,1.2,4.5,2.6,6.2,4.4
								c0.5-0.1,1.4-0.1,1.2-0.7l-0.7-0.2c-0.1-0.5,0.3-0.6,0.7-0.7c0.4-0.1,0.6-0.2,0.4-0.5c0.5-0.1,1-0.3,1.4-0.4
								c0.4-0.1,0.7,0,1.1,0.4l0.1,0.8l0.1,0.6c0-0.1,0-0.1-0.1-0.2c-0.2-0.4-0.5-0.8-0.8-0.6c0.2-0.2,0.4,0.3,0.8,0.8
								c0.4,0.2,1,0.2,1.1-0.8c0,0-0.7-0.6-0.7-0.6c0.3-0.5,0.5-1.1,0.7-1.6c0.1-0.2,0.2-0.4,0.3-0.6c0-0.1,0.1-0.1,0.2-0.1
								c0.1,0,0.3-0.1,0.4-0.1c-1-0.9-0.3,0.3-1.1-0.9c0.4,0.8,0.1,0.9-0.1,1c-0.2,0.1-0.5,0.2-0.2,1.1c-0.2-0.6-0.3-0.8-0.4-0.9
								c-0.1-0.3-0.4-0.4-0.3-1.4c-0.1,0.4-0.1,0.8-0.3,0.5c0,0.1-0.1,0.2-0.2,0.3c0,0,0,0,0,0l0,0.1c0,0.1,0,0.1,0,0
								c0,0.2,0,0.5,0,0.7c-0.2,0.4-0.6,0.5-0.9,0.5c-0.1,0-0.5-0.1-0.7-0.1c-0.3,0-0.5-0.1-0.7,0c-0.5-0.5,0.4-0.3,0.3-0.8
								l-1.1,0.2c0.3-0.8-0.8-2.1,0.8-1.9l-1.2-0.6c-0.5-0.8-1.3-1.5-2.1-1.5c-0.5-0.5-1.9,0.2-1.1-0.2l-2.1-0.5l0.1-0.2
								c-1.8-1-4.4-0.6-5.8-3.1c-0.7-0.1-1.5-0.2-2.4-1l0.2-0.8c-0.9-0.2-2-1.9-2.7-1.4c0.1-2.3-3.6-2.4-4.8-3.4l-0.5,0.9
								c-0.9-0.5-2-0.8-3.4-1l-0.3,0.8c-1.4,0.1-2.3-1.9-4-2.7c0.3-0.2,0.6,0,0.8,0.4c-0.5-1.4-1.7-1.6-2.9-1.7
								c-0.8-0.2-1.7-0.4-2.5-0.7c-0.8-0.3-1.4-0.7-2.1-1.5c-0.3,0-0.6-0.1-0.9-0.2c-0.3,0.1-0.5,0.1-0.8,0.1c0.1,0,0.1-0.1,0.2-0.1
								c-0.1,0-0.2,0.1-0.3,0.1c-0.3,0-0.7-0.1-1,0c0.3,0.1,0.6,0.1,0.9,0.1c-0.5,0.3-1.4,0.8-2.1,1.3c0,0-0.1-0.2-0.3-0.4
								c-0.2-0.2-0.3-0.4-0.3-0.4c-0.1,0-0.1,0.1-0.2,0.1c-1,0-0.5,0.7,0.1,1.2c-0.3,0.3-0.6,0.7-0.8,1c-0.7-0.5-0.9-0.3-1.2,0
								c-0.3,0.3-0.6,0.5-1.3-0.1c0,0.9-2.3,1.7-1.9,3.4c-0.1-0.2-0.3-0.2,0-0.4c-0.7,0.1-1.3,0.2-1.6,0.8l-0.7-1l-0.6,2.1
								c-1.1-0.3-1.6-0.6-1.2-1.8c-1.2,2.1-1.3,1.2-2.2,3.2l-0.3-0.8c-0.5,0.3-1,1.6-1.6,1.2c-1.9-0.8-6.2,2.6-10,2.8
								c1.6,1.8-1.9-0.3-1.3,1.4c-0.4-0.4-1-0.5-0.7-1.2c-1.4,1.2-2.8,0.3-3.3,2.2c-0.4-0.4,0-0.9-0.3-1.1c-0.1,0.2-0.3,0.7-0.6,0.4
								c-0.3-0.2,0-0.5,0.2-0.9c-1.6,0.8-1.1,2.5-0.5,4c-1.2-0.3-1.5,0-1.7,1.2c-0.5-0.3-1.2-0.6-0.3-1.3c-0.6,0.2-3.9,0.9-3.4,2.1
								c-0.2-0.1-0.4,0-0.5,0.1c-0.1,0.1-0.2,0.2-0.2,0.3c-0.9,0.3-1,0.2-1.8,0.7l0.2,0.1c-0.1,0.7-0.3,0.9-0.4,1.1
								c-0.3-0.1-0.6-0.7-1.1-0.9l0.1-0.1c-1.3-1.9-0.7,0.2-2.4-2.1l-0.3,0.9c-1.2,1.7-1.5-2.1-3.1-2.1l0.2,0.7
								c-1,0.3-0.7-3.5-1.3-4.1c-0.1-0.2,0.4-0.1,0.7-0.1c-1.3-2.1-0.8,1-2.4,0.5c0.1-0.7,1.1-1.4,0.2-2c-0.2-0.7-3.8,0.5-4.5-1.3
								c0,0.6,0.1,1.2-0.7,1.2c-1.1-0.4-1.8-3.2-3.5-2.2c-0.1-0.2,0-0.3,0-0.5c-1,0-2.8-0.7-3.7-0.1c0.8-3.3-5.5-1-4.1-3.7l-2.4-1.1
								l0.2-0.2c-1.4-1-2.3-0.6-3.2-0.2c-0.3-0.4,0.1-0.5,0.2-0.6c-1.9-1.7-2.2-1.7-4.7-1.3l0.3-1c-0.4,0.3-2.4-2-5-3.4
								c-0.9,0.4-1.8,0.9-2.6,1.5c0-0.1,0-0.4,0.3-0.6c-0.9,0.7-1.9,1.2-3,1.5c-0.8,0.2-1.6,0.3-2.3,0.4c-1.5,0.2-2.6,0.7-2.3,2.5
								l-1.3,1.6c2.2-0.7,0.3,1.6,1.5,1.7c-0.8,0.6-2.6,0-1.7-0.6l0.2,0.1c-0.4-1.9-2.9,0.6-3.4-0.6c-4.2,2-8.7,2.9-12.6,4.6
								l1.1,1.1l-1.4,0.5c-0.5-0.1-1-0.8,0-1.2c-0.9-0.5-1.4,1.4-1.2,1.7c-2.2,0.3,0-1.9-0.6-1.7l-0.8,0.5l0.3,0.1
								c-0.4,0.8-0.2,1.4-1.4,1.9c-0.9,0.1-0.8-0.6-1.1-0.6c0-0.1-0.2-0.1-0.5,0.2l-1.8,0.7l1.2,0.7c-0.5,0.9-1.6,0.7-0.3,1.5
								c-1-0.7-2.7-0.1-4.2,0.6c-0.7,0.3-1.5,0.7-2,1c-0.4,0.2-0.7,0.3-0.8,0.1c-0.2,0.7-0.7,1.1-1.1,1.3c-0.3-0.1-0.6-0.3-1-0.5
								c0.1,0.3,0.1,1.8-0.8,1.1c0.5-1.2,0.3-1.7,0-2.1l-0.1-0.1l-0.2-0.2c-0.2-0.1-0.3-0.3-0.4-0.5c-0.3-0.3-0.5-0.7-0.5-1.3
								c0.2,1.5-3.3-1.3-2.9,0.9c-0.8-0.7,0.4-0.9,0-1.8c-2.7-0.2-4.5-3.1-7.4-4.2c-0.2,0.3,0,1-0.8,1.2l-0.6-2.3
								c-0.6-0.1-1.4,1.5-1.8,0c0,0.3,0,0.8-0.4,0.8c-4.5-4.3-11.5-4.4-15.4-10c0.4,1-0.1,0.8-0.7,0.5c0.3,0.3-0.4,0.8-0.6,1.2
								l-1.6-2.3c-1,1-2.5-1.2-3.3-0.2l0.8,0.2c-1.6,0.8-0.2,3.6-1.2,5.3c1.8-1,1.6,3.7,4.5,2.4c0.2,0.5-0.6,0.4-0.6,0.9
								c0.8-0.5,1.4-0.4,2.3,0.5l-0.2,0.1c2.9,1.3,3.7,2.6,6.6,4.7l0.2-1c0.6,0.5,0.6,0.8,0.8,1.2c1.4-0.9-1.8-1-0.4-2.1
								c0,2.2,4.7,2.5,4.3,4.7c1,0.5,0.2-1.1,1.2-0.6l0,0.7l0.6-0.5c0.6,0.5,0.6,1.3,0.4,1.8c-0.1-0.1-0.5-0.1-0.7-0.2
								c0.6,1.1,2.6,1.1,2.8,1.4l-0.8-0.8c3.1,1,6.1,3.4,9.4,3.8l0-0.5c1.2,0.2,1.6,0.5,1.9,0.9c0.2,0.2,0.4,0.4,0.6,0.6
								c0.1,0.1,0.3,0.2,0.5,0.3c0.1,0.1,0.2,0.1,0.4,0.2c0.2,0.1,0.3,0.1,0.5,0.2l-0.2,0c0.9-0.1,1.7,0.1,2.6,0.6
								c-0.5,0.1-0.2,0.5,0.2,1c0.3,0.5,0.6,0.9,0,0.9c1,0.2,1.5,0.3,1.9,0.4c0.5-0.4,0.6-0.6,0.8-1c0.2-0.4,0.5-0.9,1.1-1.8
								c0,0,0.1,0.1,0.3,0.3c0.2,0.1,0.3,0.3,0.3,0.3c0.5-1,0.5-1.4,1.8-2.2c-0.4,0.5-0.1,0.7,0.3,0.9c0.2,0.1,0.3,0.2,0.4,0.4
								c0,0.2,0.1,0.4-0.2,0.7c0.1,0,0.3,0,0.4,0c0.1,0,0.2,0,0.3,0c0.2,0,0.3,0,0.5-0.1c0.3-0.1,0.6-0.2,0.8-0.3
								c0.5-0.3,0.8-0.6,1.1-0.9c0.6-0.6,1.1-1.1,2.2-0.3c0.3-2.4-2.6-0.1-2.1-0.8c-0.8-0.4,0.3-1.8,1.1-2c0.8-0.3,2.4,1.8,4.4,0.9
								c-0.2,0.1-0.1,0.2-0.3,0.3c1,0.1,1.2-1.3,2.4-0.9c0-1.4,1.2-0.5,0.7-2l-1.7,1.2c0.9-0.8,1-3,3.1-2.9c0,0.4-0.3,1-0.6,1.3
								c0.7,0.2,0.8-0.7,1.5-0.5c0.5,1.5-2.1,1.3-2.7,2.9c0.8,0.4,1.6-2,1.8-0.2c-0.1-2.3,2.1-0.6,2.7-2.8l0.3,0.9
								c0.1-0.2,0.4-0.8,0.8-1l-0.2,1.4c0.6-1.4,2.5-0.1,3.3-1.1c-2.2,1-1-0.8-2.2-1c2.1-2.4,2.6,1.6,5.4-0.2
								c-0.4,0.3-1.8,0.2-1.3-0.5c0.7-0.1,1.6-0.1,2.1,0.2c1.9-1.1-0.7-0.8-0.1-1.7c1.2,0.7,0.8-0.9,1.5-1.6l0.4,0.9
								c2.5-0.5-0.2-2.1,2.1-2.3l-0.3,1.6l0.9-0.8l0.2,1.1c0.8-1.3,1.3-1.2,2.5-1.5c-0.5-0.5-0.6-1.7,0.4-2.1c0.9,0.2,0,1,1.4,0.2
								c-0.1,0.7-0.1,1.5-1.1,1c0.1,0.3-0.1,0.7,0,1c1,0.3,1.9-0.7,2.4-0.9c-0.2,0.1-0.5,0.1-0.6,0l1.5-2.2c0.5,0.2,0.3,0.6,0.2,0.9
								c0.2-0.1,0.3-0.3,0.5-0.6c0-0.2,0.1-0.3,0.2-0.4c0.1,0.4,0.2,0.7,0.3,1.1c0,0.2,0.1,0.3,0.1,0.5c0,0.1,0,0.1,0,0.2
								c0,0.1-0.1,0.2-0.2,0.3c0,0,0.1-0.1,0.2-0.3c0-0.1,0-0.2,0.1-0.4c0.1-0.3,0.2-0.6,0.2-0.6c0.1,0.3,0.4,0.8,0.4,1.2
								c0.1,0.1,0.1,0,0.2-0.1c0.1-0.2,0.2-0.4,0.4-0.6c0.2-0.2,0.4-0.2,0.5,0.1c0.1-0.1,0.1-0.3,0.5-0.2c1.2,0.8,2,2.3,4,2.2
								l0.2,1.7c1.4,0.4-0.4-2.2,1.9-1.6c1.7,0.4,0,1.3,0.3,2c1-0.3,3-0.9,3.8,0.8C341,425.5,340.8,425.1,340.3,425z M355.7,432.3
								c-0.4,0-1.3,0.3-1.2-0.3C355.3,431.1,355.4,431.7,355.7,432.3z M381.8,432.4c-0.1,0.4-0.5,0.4-1,0.2
								C381,432.5,381.3,432.3,381.8,432.4z M447.9,429.3C447.9,429.3,447.9,429.3,447.9,429.3C447.4,428.7,447.5,428.9,447.9,429.3
								z M449.1,430.4c0.2,0,0.3-0.2,0.3-0.3c-0.2,0.2-0.5,0-0.8-0.2C448.5,430.1,448.6,430.4,449.1,430.4z M298,424.4l0.4,0.1
								C297.9,425,298,424.7,298,424.4z"/>
							<path class="st24" d="M379.7,434.8c-0.2-0.1-0.3-0.3-0.3-0.4C379.3,434.6,379.4,434.8,379.7,434.8z"/>
							<path class="st24" d="M330.8,420.7C330.8,420.6,330.8,420.6,330.8,420.7c0,0-0.1,0.1-0.1,0.1L330.8,420.7z"/>
							<path class="st24" d="M424.3,426.8c-0.2-0.3-0.3-0.5-0.3-0.7C423.8,426.3,423.9,426.5,424.3,426.8z"/>
							<path class="st24" d="M453.6,430.6c0,0-0.2,0.4-0.2,0.4c0.1-0.1,0.2,0.1,0.3,0.2C453.6,431,453.5,430.7,453.6,430.6z"/>
							<path class="st24" d="M462.1,433.4c0.1-0.2,0.3-0.1,0.3-0.3l-0.2-0.4C461.7,432.9,461.4,433.4,462.1,433.4z"/>
							<path class="st24" d="M454.5,433.7c0.2,0.8,0.6,0.3,1,0c0,0,0,0-0.1,0C455.1,432.7,454.9,433.2,454.5,433.7z"/>
							<path class="st24" d="M455.6,433.7c0.2-0.1,0.4-0.2,0.6-0.3C456,432.9,455.9,433.4,455.6,433.7z"/>
							<path class="st24" d="M451,430.8c0.2,0.3,0.7-0.8,0.7-0.4C452.5,429.6,449.2,430.5,451,430.8z"/>
							<path class="st24" d="M455.6,436.2c0,0-0.1-0.2-0.3-0.4c-0.1-0.2-0.2-0.4-0.2-0.4s0,0.2-0.1,0.5c0,0.2-0.1,0.5-0.1,0.5
								L455.6,436.2z"/>
							<path class="st24" d="M451,435.4l0.8,0.7c0-0.2,0.2-0.2,0.3-0.2C451.6,435.6,451.1,435.1,451,435.4z"/>
							<path class="st24" d="M452.2,435.9c0.3,0.2,0.5,0.3,0.7,0.2C452.7,436,452.4,435.9,452.2,435.9z"/>
							<polygon class="st24" points="454.3,437.1 454,437 453.3,437.3 							"/>
							<path class="st24" d="M440.8,429.8l-1.2-0.3c-0.3,0.2-0.1,0.6,0.4,0.7C440.3,430.1,440.8,430.2,440.8,429.8z"/>
							<path class="st24" d="M442.7,433.9c-0.2-0.3-0.1-0.5-0.1-0.9l-0.6,1.1L442.7,433.9z"/>
							<path class="st24" d="M439.5,432.6c-0.3,0.3-2,0.1-0.6,0.7C439.1,433,440.3,433.3,439.5,432.6z"/>
							<polygon class="st24" points="424.2,422.9 424.5,423 425.4,421.2 							"/>
							<path class="st24" d="M411.7,422.5c0.5,0.3-0.1-1.3,0.4-0.9c0.1-0.6-0.5-0.3-0.4-0.8C411.4,421.5,411.2,421.3,411.7,422.5z"
								/>
							<path class="st24" d="M411.7,420.8c0.1-0.1,0.1-0.2,0.2-0.4C411.8,420.6,411.7,420.7,411.7,420.8z"/>
							<polygon class="st24" points="252.2,408.7 251.6,407.9 251.8,408.8 							"/>
							<path class="st24" d="M250,409.3l0.4-1.3l-1,0.8C249.6,408.8,250,408.9,250,409.3z"/>
							<path class="st24" d="M356.8,435.8l0.2-0.2c0-0.4-0.1-0.5-0.5-0.7L356.8,435.8z"/>
							<polygon class="st24" points="346.2,429.2 346.4,429.3 346.6,428.1 							"/>
							<path class="st24" d="M336.3,425.8c0.4,0.2,0.9,0.2,1.3,0.5C336.7,426,336.9,424.4,336.3,425.8z"/>
						</g>
					</g>
				</g>
			</g>
		</g>
	</g>
	<g id="JetSki-line" class="st6">
		<line class="st25" x1="270.4" y1="377" x2="260.7" y2="385.7"/>
		<polyline class="st26" points="270.4,377 350.5,362 350.5,362 350.5,362 		"/>
		<polygon class="st27" points="452,405.6 455.9,408.6 458.2,414.2 		"/>
		<polygon class="st27" points="441.7,396.7 405.2,398 453.7,408.5 		"/>
		<polyline class="st27" points="441.7,396.7 366.7,389.3 453.7,408.5 		"/>
		<polyline class="st25" points="260.7,385.7 329.6,417.5 470.6,444.4 455.9,408.6 470.6,444.4 329.6,417.5 257.7,385.6 270.4,377 
			347.5,361.8 		"/>
		<polyline class="st25" points="347.5,361.8 377.1,339.3 380.7,337.7 384.7,336.6 388,337.6 389.5,341.3 361.1,364.7 361.5,367.8 
			360.9,372.5 366.7,389.3 455.9,408.6 		"/>
		<line class="st25" x1="361.1" y1="364.7" x2="366.7" y2="389.3"/>
	</g>
</g>
<g id="Option2">
	<rect x="353.5" y="57" class="st28" width="59.5" height="128"/>
	<polygon class="st28" points="250.8,28.5 438,185.5 63.5,185.5 	"/>
	<rect x="63.5" y="392" class="st28" width="380.5" height="7"/>
	<text transform="matrix(1.5194 0 0 1 34.999 461)" class="st24 st29 st30">AGENTS</text>
	<g id="Man" class="st6">
		
			<ellipse id="Head" transform="matrix(1 -9.954114e-03 9.954114e-03 1 -2.6028 2.0347)" class="st31" cx="203.1" cy="262.5" rx="24.5" ry="24.5"/>
	</g>
	<g id="Women" class="st6">
		<line class="st31" x1="270.9" y1="299.9" x2="307.5" y2="317"/>
		<line class="st31" x1="307.5" y1="317" x2="340.9" y2="298.7"/>
		<line class="st31" x1="332.7" y1="385.7" x2="307.9" y2="355"/>
		<line class="st31" x1="283.7" y1="384.2" x2="307.9" y2="355"/>
		<line class="st31" x1="307.3" y1="287" x2="307.9" y2="355"/>
		
			<ellipse transform="matrix(1 -9.954114e-03 9.954114e-03 1 -2.5976 3.069)" class="st31" cx="307" cy="262.5" rx="24.5" ry="24.5"/>
		<g class="st7">
			<g>
				<path class="st24" d="M302.4,235.6c-1-2-1.8-4.2-2.1-6.5c-0.6-3.5,2.8-4.1,5.7-4.1c2.2,0,5.3,0.4,6.5,2.6c1.4,2.4,0,5.6-0.8,8
					c-1.1,3,3.7,4.3,4.8,1.3c1.5-4.1,2.5-8.9-0.3-12.7c-2.5-3.5-7.4-4.4-11.4-4.1c-3.8,0.2-8.5,1.3-9.4,5.6c-0.9,4,1.2,8.8,2.8,12.4
					C299.5,241,303.8,238.5,302.4,235.6L302.4,235.6z"/>
			</g>
		</g>
		<g class="st7">
			<g>
				<path class="st24" d="M315,223c-0.5-5.7,2.8-10.1,7.6-12.9c1.9-1.1,4.7-2.6,6.9-2.7c3.9-0.3,4.9,3,5.6,6.2
					c2.5,10.7-3.2,20.7-10.6,28c-2.3,2.3,1.2,5.8,3.5,3.5c5.6-5.6,10.4-12.3,12-20.2c1.3-6.6,0.8-15.3-3.8-20.7
					c-4.1-4.9-12.5-0.7-16.9,2c-5.9,3.6-9.9,9.7-9.4,16.8C310.3,226.2,315.3,226.2,315,223L315,223z"/>
			</g>
		</g>
		<g class="st7">
			<g>
				<path class="st24" d="M302.6,224c0.6-7.1-3.5-13.1-9.4-16.8c-4.5-2.8-12.9-6.9-16.9-2c-4.5,5.4-5.1,14.1-3.8,20.7
					c1.6,7.9,6.3,14.7,12,20.2c2.3,2.3,5.8-1.3,3.5-3.5c-7.4-7.3-13.1-17.3-10.6-28c0.6-2.6,1.5-6.4,4.9-6.5c2-0.1,5.3,1.6,7,2.5
					c5.1,2.7,8.8,7.3,8.3,13.3C297.4,227.2,302.4,227.2,302.6,224L302.6,224z"/>
			</g>
		</g>
	</g>
	
		<image style="overflow:visible;" width="256" height="256" xlink:href="../Downloads/font-awesome_4-6-3_users_256_0_ffffff_none.png"  transform="matrix(0.7041 0 0 0.6714 166.25 199)">
	</image>
</g>
</svg>
